# xmcd
#
# Track frame offsets: 
#        150
#        53392
#        65884
#        86993
#        99330
#        112918
#        140157
#        182082
#        204477
#        223692
#        247533
#
# Disc length: 3459 seconds
#
# Revision: 0
# Processed by: cddbd v1.5.2PL0 Copyright (c) Steve Scherf et al.
# Submitted via: ExactAudioCopy v1.1
#
DISCID=990d810b
DTITLE=Muddy Waters - Muddy 'Mississippi' Waters Live - Disc 2
DYEAR=2003
DGENRE=Blues
TTITLE0=Medley- After Hours - Stormy Monday Blues (live)
TTITLE1=Trouble No More (live)
TTITLE2=Champagne and Reefer (live)
TTITLE3=Corinna, Corrina (live)
TTITLE4=Hoochie Coochie Man (live)
TTITLE5=She Moves Me (live)
TTITLE6=Kansas City (live)
TTITLE7=Pinetop's Boogie Woogie (live)
TTITLE8=Mad Love (I Want You To Love Me) (live)
TTITLE9=Everything's Gonna Be Alright (live)
TTITLE10=Got My Mojo Working (live)
EXTD=
EXTT0=
EXTT1=
EXTT2=
EXTT3=
EXTT4=
EXTT5=
EXTT6=
EXTT7=
EXTT8=
EXTT9=
EXTT10=
PLAYORDER=
